<svg data-v-423bf9ae="" xmlns="http://www.w3.org/2000/svg" viewBox="0 0 495.36735971864664 60" class="font"><!----><!----><!----><g data-v-423bf9ae="" id="ad9377fb-2676-44c9-bdfd-ef1f4f8ede1b" fill="#7DE38D" transform="matrix(6.1224488604322,0,0,6.1224488604322,0.000005443411055239267,-4.285714427340487)"><path d="M4.82 0.70L4.82 0.70L5.14 0.70L5.10 1.04L3.51 10.28L3.49 10.50L3.25 10.50L1.90 10.50L1.67 10.50L1.62 10.28L0.06 1.04L0 0.70L0.34 0.70L1.33 0.70L1.57 0.70L1.61 0.94L2.58 7.60L3.54 0.94L3.58 0.70L3.82 0.70L4.82 0.70ZM7.48 10.50L7.48 10.50L5.94 10.50L5.94 0.70L7.48 0.70L7.48 10.50ZM11.89 0.70L11.89 0.70L12.87 0.70L12.87 0.70L12.87 10.50L12.87 10.50L11.33 10.50L11.33 10.50L9.93 6.12L9.93 10.50L9.93 10.50L8.39 10.50L8.39 0.70L8.95 0.70L8.95 0.70L9.93 0.70L9.93 0.70L9.93 0.73L11.33 5.35L11.33 0.70L11.89 0.70L11.89 0.70ZM17.28 0.70L17.28 0.70L18.86 10.50L17.29 10.50L16.32 3.70L15.93 6.90L15.93 6.92L16.32 6.92L16.32 8.46L15.68 8.46L15.36 10.50L13.80 10.50L14.13 8.46L13.78 8.46L13.78 6.92L14.38 6.92L15.37 0.70L17.28 0.70ZM24.23 0.70L24.23 0.70L24.60 0.70L24.50 1.05L22.79 7.13L22.79 10.49L22.79 10.50L22.51 10.50L21.53 10.50L21.25 10.50L21.25 10.49L21.25 7.13L19.53 1.05L19.45 0.70L19.81 0.70L20.80 0.70L21.01 0.70L21.07 0.90L22.02 4.37L22.97 0.90L23.03 0.70L23.24 0.70L24.23 0.70ZM31.39 0.70L31.39 0.70L33.78 0.70L33.78 10.50L32.24 10.50L32.24 5.24L31.39 9.77L30.04 9.77L29.19 5.24L29.19 10.50L27.65 10.50L27.65 0.70L30.04 0.70L30.72 4.61L31.39 0.70ZM38.19 0.70L38.19 0.70L39.77 10.50L38.21 10.50L37.24 3.70L36.85 6.90L36.85 6.92L37.24 6.92L37.24 8.46L36.60 8.46L36.27 10.50L34.72 10.50L35.04 8.46L34.69 8.46L34.69 6.92L35.29 6.92L36.29 0.70L38.19 0.70ZM45.15 0.70L45.15 0.70L45.51 0.70L45.42 1.05L43.71 7.13L43.71 10.49L43.71 10.50L43.43 10.50L42.45 10.50L42.17 10.50L42.17 10.49L42.17 7.13L40.45 1.05L40.36 0.70L40.73 0.70L41.72 0.70L41.93 0.70L41.99 0.90L42.94 4.37L43.89 0.90L43.95 0.70L44.16 0.70L45.15 0.70ZM49.76 0.70L49.76 0.70L51.34 10.50L49.77 10.50L48.80 3.70L48.41 6.90L48.41 6.92L48.80 6.92L48.80 8.46L48.16 8.46L47.84 10.50L46.28 10.50L46.61 8.46L46.26 8.46L46.26 6.92L46.86 6.92L47.85 0.70L49.76 0.70ZM56.70 0.70L56.70 0.70L57.02 0.70L56.98 1.04L55.40 10.28L55.37 10.50L55.13 10.50L53.79 10.50L53.55 10.50L53.51 10.28L51.94 1.04L51.88 0.70L52.22 0.70L53.21 0.70L53.45 0.70L53.49 0.94L54.46 7.60L55.43 0.94L55.47 0.70L55.71 0.70L56.70 0.70ZM61.32 0.70L61.32 0.70L62.90 10.50L61.33 10.50L60.37 3.70L59.98 6.90L59.98 6.92L60.37 6.92L60.37 8.46L59.72 8.46L59.40 10.50L57.85 10.50L58.17 8.46L57.82 8.46L57.82 6.92L58.42 6.92L59.42 0.70L61.32 0.70ZM66.95 0.70L66.95 0.70L67.93 0.70L67.93 0.70L67.93 10.50L67.93 10.50L66.39 10.50L66.39 10.50L64.99 6.12L64.99 10.50L64.99 10.50L63.45 10.50L63.45 0.70L64.01 0.70L64.01 0.70L64.99 0.70L64.99 0.70L64.99 0.73L66.39 5.35L66.39 0.70L66.95 0.70L66.95 0.70ZM72.77 1.16L72.77 1.16L72.77 1.16Q73.11 1.57 73.11 2.07L73.11 2.07L73.11 3.12L73.11 3.40L72.83 3.40L71.85 3.40L71.57 3.40L71.57 3.12L71.57 2.23L70.39 2.23L70.39 3.98L70.39 4.05L71.71 4.05L71.71 4.05Q72.30 4.05 72.70 4.45L72.70 4.45L72.70 4.45Q73.11 4.86 73.11 5.45L73.11 5.45L73.11 6.85L73.11 9.11L73.11 9.11Q73.11 9.62 72.77 10.02L72.77 10.02L72.77 10.02Q72.44 10.40 71.93 10.49L71.93 10.49L71.90 10.50L71.89 10.50L70.06 10.50L70.04 10.50L70.01 10.49L70.01 10.49Q69.51 10.40 69.17 10.02L69.17 10.02L69.17 10.02Q68.84 9.62 68.84 9.11L68.84 9.11L68.84 8.06L68.84 7.78L69.12 7.78L70.11 7.78L70.39 7.78L70.39 8.06L70.39 8.96L71.57 8.96L71.57 5.60L70.24 5.60L70.24 5.60Q69.65 5.60 69.24 5.19L69.24 5.19L69.24 5.19Q68.84 4.79 68.84 4.20L68.84 4.20L68.84 4.10L68.84 3.98L68.84 2.07L68.84 2.07Q68.84 1.57 69.17 1.16L69.17 1.16L69.17 1.16Q69.51 0.78 70.01 0.70L70.01 0.70L70.04 0.70L70.06 0.70L71.89 0.70L71.90 0.70L71.93 0.70L71.93 0.70Q72.44 0.78 72.77 1.16ZM76.92 0.70L76.92 0.70L78.46 0.70L78.46 10.50L76.92 10.50L76.92 5.60L75.56 5.60L75.56 10.50L74.02 10.50L74.02 4.06L75.54 4.06L74.02 1.02L74.02 0.70L75.56 0.70L75.56 4.06L76.92 4.06L76.92 0.70ZM80.91 10.50L80.91 10.50L79.37 10.50L79.37 0.70L80.91 0.70L80.91 10.50Z"></path></g><!----><!----></svg>